<svg xmlns="http://www.w3.org/2000/svg" width="155mm" height="155mm" viewBox="0 0 15500 15500" shape-rendering="geometricPrecision" text-rendering="geometricPrecision" image-rendering="optimizeQuality" fill-rule="evenodd" clip-rule="evenodd"><defs><style>.fil0{fill:#000102}</style></defs><g id="Слой_x0020_1"><g id="_2257742278160"><path class="fil0" d="M8383 5446c133-59 113-53 237-7l-2 175c-125 59-62 43-200 22l-35-190zM155 9312c-81 163-7 314 109 423 300 41 685-122 948-255 418-211-103-135 834-401 2494-708 1957-566 1958 373 0 411 111 1891 391 2080 103-299 50-559 349-1272 295-702 732-1451 1273-1974 243-235 775-535 740-916-227-255-369-76-602-33 125-566 1357-533 1377-541 419-304 22-444-208-555 375-243 919 504 959 506 121-254-130-511 101-711 146 204 81 205 319 412 511 445 509-227 774-453 164-140 417-113 554-10l-307 65c-55 583 785 271 1681 626 216 85 335 203 510 280 233-939 183-1567-587-2179-953-759-2120-378-2269-797-10-29 256-805-394-707-409 62-36 739-401 874-609 225-994-894-1181-1300-131-282-266-556-397-838-393-844-37-497-241-1028-110-286-287-704-645-498-336 193-63 592 105 825 274 379 352 179 579 656l811 1693c415 814-339 1663-706 1449-168-97-76-287-204-432-115-132-355-139-498-46-343 224 132 582-147 980-241 342-529 300-883 171-604-219-1238-454-1849-656-123-41-330-96-427-173-133-107-165-185-343-292-960-579-1240-103-1054 171 117 172 733 307 934 332 222 28 372-44 560 9 592 167 1280 458 1876 663 301 104 595 234 647 588 75 504-193 760-569 500-320-222-773-71-692 337 60 298 464 406 25 882-405 438-1577 690-2265 873-284 75-1354-21-1545 299zm12236 1850c216 32 181 1248 27 1226-204 23-255-1187-27-1226zm-177 3217c126-341-89-1252 74-1527 66-58 125-61 176 1 136 214-18 1204 73 1546 197 52 634 50 834 4 80-294 26-1913 26-2340 0-1325 87-1279-1063-1276-1216 3-976-39-976 2546 0 243-71 928 77 1074 161 42 640 61 779-28zm-3436-2121c-44-1135 0-1087 157-1094 164 0 185 42 151 1090-7 215-300 203-308 4zm852 355c311-150 328-263 328-620-1-209 28-778-35-941-122-317-440-267-729-265-1495 8-1283-184-1282 711 0 437-48 2810 47 2895 140 69 661 51 815 2 12-465 2-1093 12-1567 38-157 257-161 304-6-4 306-8 1181-2 1569 148 55 673 69 813 4 120-149 56-792 56-1027 0-353 55-607-327-755z"/><path class="fil0" d="M6747 13663c126 89 715 88 834-5 122-361-29-2562 33-3173l345-45c39-138 42-177-3-314-228-81-913-36-1197-37-197-1-412-61-423 174-13 279 176 198 377 223 53 591-83 2843 34 3177zm3843-4051c66-223-27-535 64-724l302 749 355-10c145-199 190-570 350-751 2 194-44 558 32 714 115 89 483 88 616 3 63-174 51-1477-18-1614-178-47-550-44-733-4-184 216-245 588-422 765l-391-764c-186-37-587-52-759 10-75 152-73 1462-4 1627 159 51 450 52 608-1zm3104 526c-56 189-51 3365 7 3554 199 44 1197 81 1354-18l-14-296c-21-118-303 9-464-101-106-139 48-2769-55-3157-186-51-676-74-828 18zm-3458 1378c-44 211-36 3340 12 3516 178 56 644 50 827 2 46-154 54-3301 11-3522-132-105-714-120-850 4zm3544-2735l4-175c-89-50-85-36-214-37-88 0-151 2-248-6l6-415 451-19-2-192-1098 24c-63 190-78 1498 3 1634 153 100 884 65 1105 33l-8-186-453-11v-653l454 3zm-5450 826c94-163 39-1194 44-1459l461-18-11-191-1600 11 6 190 457 6c9 276-46 1287 42 1461 142 63 457 63 601 0zm1272 4c63-183 70-1457-1-1627-160-53-459-64-596 8-69 140-71 1469-2 1611 142 72 434 60 599 8zm658 1111c67 535 897 457 823-130-70-551-896-454-823 130zM9016 7476c78 332 654 265 566-174-72-360-672-278-566 174z"/></g></g></svg>